<svg width="57" height="17" viewBox="0 0 57 17" fill="none" xmlns="http://www.w3.org/2000/svg">
<path d="M0.884766 16V0.53125H5.07715C6.20215 0.53125 7.01953 0.806641 7.5293 1.35742C8.04492 1.90234 8.30273 2.80469 8.30273 4.06445V4.74121C8.30273 5.46777 8.1709 6.05664 7.90723 6.50781C7.64941 6.95898 7.25391 7.25488 6.7207 7.39551C7.41797 7.57129 7.88379 7.98438 8.11816 8.63477C8.3584 9.2793 8.47852 10.0674 8.47852 10.999C8.47852 12.001 8.38477 12.877 8.19727 13.627C8.00977 14.377 7.66992 14.96 7.17773 15.376C6.68555 15.792 5.98535 16 5.07715 16H0.884766ZM3.9082 6.3584H4.54102C4.82812 6.3584 5.0127 6.24707 5.09473 6.02441C5.17676 5.80176 5.21777 5.53516 5.21777 5.22461V3.66895C5.21777 3.1709 4.99805 2.92188 4.55859 2.92188H3.9082V6.3584ZM4.21582 13.2754C5.01855 13.2754 5.41992 12.8945 5.41992 12.1328V10.1992C5.41992 9.75977 5.35254 9.41406 5.21777 9.16211C5.08887 8.9043 4.84277 8.77539 4.47949 8.77539H3.9082V13.2578C4.03711 13.2695 4.13965 13.2754 4.21582 13.2754ZM9.07617 16L10.5703 2.28906H15.8174L17.2852 16H14.3584L14.1562 13.5039H12.2578L12.082 16H9.07617ZM13.084 4.75L12.5127 11.0342H13.8662L13.2246 4.75H13.084ZM21.4248 16.1406C19.2158 16.1406 18.1113 14.5586 18.1113 11.3945V6.53418C18.1113 3.64551 19.377 2.20117 21.9082 2.20117C22.9512 2.20117 23.751 2.3916 24.3076 2.77246C24.8643 3.14746 25.248 3.68652 25.459 4.38965C25.6699 5.09277 25.7754 5.93945 25.7754 6.92969H22.752V6.22656C22.752 5.89258 22.7051 5.61426 22.6113 5.3916C22.5234 5.16309 22.3359 5.04883 22.0488 5.04883C21.6914 5.04883 21.4541 5.16895 21.3369 5.40918C21.2256 5.64941 21.1699 5.91309 21.1699 6.2002V11.8867C21.1699 12.3027 21.2227 12.6426 21.3281 12.9062C21.4395 13.1641 21.6533 13.293 21.9697 13.293C22.2979 13.293 22.5146 13.1641 22.6201 12.9062C22.7314 12.6426 22.7871 12.2969 22.7871 11.8691V10.7617H21.9609V8.08984H25.7402V16H24.501L23.9736 14.6992C23.4346 15.6602 22.585 16.1406 21.4248 16.1406ZM27.0059 16V0.53125H33.1934V3.5459H30.1172V6.00684H33.0352V8.98633H30.1172V16H27.0059ZM34.1953 16V2.28906H37.2891V13.3633H40.4707V16H34.1953ZM41.3496 16V2.28906H47.5371V5.27734H44.4961V7.54492H47.4141V10.4541H44.4961V12.9854H47.7393V16H41.3496ZM48.3193 16L49.9805 8.7666L48.6621 2.28906H51.6855L52.4854 7.26367L53.1973 2.28906H56.2295L54.9111 8.7666L56.5635 16H53.4346L52.459 10.2783L51.457 16H48.3193Z" fill="#333333"/>
</svg>
