<svg width="73" height="15" viewBox="0 0 73 15" fill="none" xmlns="http://www.w3.org/2000/svg">
<path d="M2.65332 1.20312V14H0.517578V1.20312H2.65332ZM6.80176 6.78418V8.57715H2.16113V6.78418H6.80176ZM7.39941 1.20312V2.99609H2.16113V1.20312H7.39941ZM13.0771 12.0664V7.3291C13.0771 7.00098 13.0303 6.7373 12.9365 6.53809C12.8486 6.33887 12.7168 6.19531 12.541 6.10742C12.3711 6.01367 12.1572 5.9668 11.8994 5.9668C11.6299 5.9668 11.4014 6.02246 11.2139 6.13379C11.0322 6.24512 10.8945 6.39746 10.8008 6.59082C10.707 6.77832 10.6602 6.99512 10.6602 7.24121H8.6123C8.6123 6.86035 8.68848 6.49414 8.84082 6.14258C8.99902 5.79102 9.22461 5.47754 9.51758 5.20215C9.81055 4.92676 10.165 4.70996 10.5811 4.55176C10.9971 4.39355 11.46 4.31445 11.9697 4.31445C12.5791 4.31445 13.1211 4.41699 13.5957 4.62207C14.0703 4.82129 14.4424 5.14648 14.7119 5.59766C14.9873 6.04297 15.125 6.62891 15.125 7.35547V11.7939C15.125 12.2334 15.1514 12.626 15.2041 12.9717C15.2627 13.3115 15.3418 13.6074 15.4414 13.8594V14H13.3584C13.2646 13.7715 13.1943 13.4785 13.1475 13.1211C13.1006 12.7637 13.0771 12.4121 13.0771 12.0664ZM13.3496 8.20801L13.3584 9.53516H12.374C12.0811 9.53516 11.8174 9.57617 11.583 9.6582C11.3486 9.73438 11.1494 9.8457 10.9854 9.99219C10.8271 10.1328 10.7041 10.3057 10.6162 10.5107C10.5342 10.7158 10.4932 10.9414 10.4932 11.1875C10.4932 11.4863 10.5342 11.7295 10.6162 11.917C10.7041 12.1045 10.8301 12.2451 10.9941 12.3389C11.1641 12.4268 11.3691 12.4707 11.6094 12.4707C11.9375 12.4707 12.2217 12.4004 12.4619 12.2598C12.708 12.1133 12.8955 11.9375 13.0244 11.7324C13.1592 11.5273 13.2119 11.3398 13.1826 11.1699L13.6484 12.0225C13.6016 12.2451 13.5137 12.4795 13.3848 12.7256C13.2617 12.9717 13.1006 13.2061 12.9014 13.4287C12.7021 13.6514 12.4619 13.833 12.1807 13.9736C11.8994 14.1084 11.5742 14.1758 11.2051 14.1758C10.6719 14.1758 10.1973 14.0645 9.78125 13.8418C9.36523 13.6191 9.03711 13.2998 8.79688 12.8838C8.5625 12.4619 8.44531 11.958 8.44531 11.3721C8.44531 10.8975 8.52441 10.4668 8.68262 10.0801C8.84082 9.69336 9.0752 9.3623 9.38574 9.08691C9.69629 8.80566 10.0859 8.58887 10.5547 8.43652C11.0293 8.28418 11.583 8.20801 12.2158 8.20801H13.3496ZM20.6006 12.4619C20.8643 12.4619 21.0986 12.4062 21.3037 12.2949C21.5146 12.1836 21.6816 12.0107 21.8047 11.7764C21.9277 11.5361 21.9951 11.2256 22.0068 10.8447H23.9316C23.9199 11.5186 23.7646 12.1074 23.4658 12.6113C23.167 13.1094 22.7686 13.4961 22.2705 13.7715C21.7783 14.041 21.2305 14.1758 20.627 14.1758C20 14.1758 19.4521 14.0762 18.9834 13.877C18.5205 13.6719 18.1367 13.376 17.832 12.9893C17.5273 12.6025 17.2988 12.1338 17.1465 11.583C17 11.0264 16.9268 10.3906 16.9268 9.67578V8.81445C16.9268 8.10547 17 7.47266 17.1465 6.91602C17.2988 6.35938 17.5273 5.8877 17.832 5.50098C18.1367 5.11426 18.5205 4.82129 18.9834 4.62207C19.4463 4.41699 19.9912 4.31445 20.6182 4.31445C21.2861 4.31445 21.8633 4.45508 22.3496 4.73633C22.8418 5.01172 23.2256 5.41602 23.501 5.94922C23.7764 6.48242 23.9199 7.13574 23.9316 7.90918H22.0068C21.9951 7.49902 21.9336 7.15625 21.8223 6.88086C21.7109 6.59961 21.5527 6.38867 21.3477 6.24805C21.1484 6.10742 20.8965 6.03711 20.5918 6.03711C20.2578 6.03711 19.9824 6.10156 19.7656 6.23047C19.5547 6.35352 19.3906 6.53516 19.2734 6.77539C19.1621 7.01562 19.083 7.30859 19.0361 7.6543C18.9951 7.99414 18.9746 8.38086 18.9746 8.81445V9.67578C18.9746 10.1211 18.9951 10.5166 19.0361 10.8623C19.0771 11.2021 19.1533 11.4922 19.2646 11.7324C19.3818 11.9727 19.5488 12.1543 19.7656 12.2773C19.9824 12.4004 20.2607 12.4619 20.6006 12.4619ZM29.1611 14.1758C28.5459 14.1758 27.998 14.085 27.5176 13.9033C27.0371 13.7158 26.6299 13.4404 26.2959 13.0771C25.9619 12.708 25.707 12.2568 25.5312 11.7236C25.3555 11.1846 25.2676 10.5605 25.2676 9.85156V8.9375C25.2676 8.13477 25.3584 7.44336 25.54 6.86328C25.7275 6.27734 25.9854 5.79688 26.3135 5.42188C26.6416 5.04688 27.0283 4.76855 27.4736 4.58691C27.9248 4.40527 28.4141 4.31445 28.9414 4.31445C29.5391 4.31445 30.0576 4.41113 30.4971 4.60449C30.9365 4.79785 31.2969 5.08789 31.5781 5.47461C31.8652 5.86133 32.0762 6.33887 32.2109 6.90723C32.3516 7.47559 32.4219 8.12891 32.4219 8.86719V9.89551H26.252V8.34863H30.4004V8.12891C30.3887 7.69531 30.3359 7.32324 30.2422 7.0127C30.1484 6.69629 29.9961 6.45605 29.7852 6.29199C29.5801 6.12207 29.2959 6.03711 28.9326 6.03711C28.6689 6.03711 28.4346 6.08691 28.2295 6.18652C28.0244 6.28613 27.8545 6.44727 27.7197 6.66992C27.5908 6.89258 27.4912 7.19141 27.4209 7.56641C27.3506 7.93555 27.3154 8.39258 27.3154 8.9375V9.85156C27.3154 10.3262 27.3564 10.7275 27.4385 11.0557C27.5264 11.3838 27.6553 11.6533 27.8252 11.8643C27.9951 12.0693 28.2002 12.2217 28.4404 12.3213C28.6865 12.415 28.9707 12.4619 29.293 12.4619C29.7676 12.4619 30.1748 12.374 30.5146 12.1982C30.8604 12.0166 31.1592 11.7822 31.4111 11.4951L32.3164 12.752C32.1465 12.9805 31.918 13.2061 31.6309 13.4287C31.3438 13.6455 30.9951 13.8242 30.585 13.9648C30.1807 14.1055 29.7061 14.1758 29.1611 14.1758ZM42.9072 1.20312V14H40.8154L36.2979 5.14062V14H34.2324V1.20312H36.2979L40.8506 10.124V1.20312H42.9072ZM44.8584 9.63184V8.86719C44.8584 8.12891 44.9492 7.47559 45.1309 6.90723C45.3125 6.33887 45.5703 5.86426 45.9043 5.4834C46.2441 5.09668 46.6426 4.80664 47.0996 4.61328C47.5566 4.41406 48.0605 4.31445 48.6113 4.31445C49.1738 4.31445 49.6836 4.41406 50.1406 4.61328C50.6035 4.80664 51.002 5.09668 51.3359 5.4834C51.6758 5.86426 51.9365 6.33887 52.1182 6.90723C52.2998 7.47559 52.3906 8.12891 52.3906 8.86719V9.63184C52.3906 10.3701 52.2998 11.0234 52.1182 11.5918C51.9365 12.1602 51.6758 12.6377 51.3359 13.0244C51.002 13.4053 50.6064 13.6924 50.1494 13.8857C49.6924 14.0791 49.1855 14.1758 48.6289 14.1758C48.0781 14.1758 47.5713 14.0791 47.1084 13.8857C46.6514 13.6924 46.2529 13.4053 45.9131 13.0244C45.5732 12.6377 45.3125 12.1602 45.1309 11.5918C44.9492 11.0234 44.8584 10.3701 44.8584 9.63184ZM46.9062 8.86719V9.63184C46.9062 10.1064 46.9473 10.5225 47.0293 10.8799C47.1113 11.2314 47.2285 11.5244 47.3809 11.7588C47.5332 11.9932 47.7148 12.1689 47.9258 12.2861C48.1367 12.4033 48.3711 12.4619 48.6289 12.4619C48.916 12.4619 49.165 12.4033 49.376 12.2861C49.5928 12.1689 49.7715 11.9932 49.9121 11.7588C50.0586 11.5244 50.167 11.2314 50.2373 10.8799C50.3076 10.5225 50.3428 10.1064 50.3428 9.63184V8.86719C50.3428 8.39844 50.3018 7.98828 50.2197 7.63672C50.1377 7.2793 50.0205 6.9834 49.8682 6.74902C49.7158 6.50879 49.5312 6.33008 49.3145 6.21289C49.1035 6.0957 48.8691 6.03711 48.6113 6.03711C48.3594 6.03711 48.1279 6.0957 47.917 6.21289C47.7119 6.33008 47.5332 6.50879 47.3809 6.74902C47.2285 6.9834 47.1113 7.2793 47.0293 7.63672C46.9473 7.98828 46.9062 8.39844 46.9062 8.86719ZM56.6709 12.2949L58.4287 4.49023H60.5469L57.8398 14H56.5303L56.6709 12.2949ZM55.4229 4.49023L57.2422 12.3213L57.3301 14H56.0293L53.3047 4.49023H55.4229ZM65.4424 14.1758C64.8271 14.1758 64.2793 14.085 63.7988 13.9033C63.3184 13.7158 62.9111 13.4404 62.5771 13.0771C62.2432 12.708 61.9883 12.2568 61.8125 11.7236C61.6367 11.1846 61.5488 10.5605 61.5488 9.85156V8.9375C61.5488 8.13477 61.6396 7.44336 61.8213 6.86328C62.0088 6.27734 62.2666 5.79688 62.5947 5.42188C62.9229 5.04688 63.3096 4.76855 63.7549 4.58691C64.2061 4.40527 64.6953 4.31445 65.2227 4.31445C65.8203 4.31445 66.3389 4.41113 66.7783 4.60449C67.2178 4.79785 67.5781 5.08789 67.8594 5.47461C68.1465 5.86133 68.3574 6.33887 68.4922 6.90723C68.6328 7.47559 68.7031 8.12891 68.7031 8.86719V9.89551H62.5332V8.34863H66.6816V8.12891C66.6699 7.69531 66.6172 7.32324 66.5234 7.0127C66.4297 6.69629 66.2773 6.45605 66.0664 6.29199C65.8613 6.12207 65.5771 6.03711 65.2139 6.03711C64.9502 6.03711 64.7158 6.08691 64.5107 6.18652C64.3057 6.28613 64.1357 6.44727 64.001 6.66992C63.8721 6.89258 63.7725 7.19141 63.7021 7.56641C63.6318 7.93555 63.5967 8.39258 63.5967 8.9375V9.85156C63.5967 10.3262 63.6377 10.7275 63.7197 11.0557C63.8076 11.3838 63.9365 11.6533 64.1064 11.8643C64.2764 12.0693 64.4814 12.2217 64.7217 12.3213C64.9678 12.415 65.252 12.4619 65.5742 12.4619C66.0488 12.4619 66.4561 12.374 66.7959 12.1982C67.1416 12.0166 67.4404 11.7822 67.6924 11.4951L68.5977 12.752C68.4277 12.9805 68.1992 13.2061 67.9121 13.4287C67.625 13.6455 67.2764 13.8242 66.8662 13.9648C66.4619 14.1055 65.9873 14.1758 65.4424 14.1758ZM72.5176 0.5V14H70.4697V0.5H72.5176Z" fill="#333333"/>
</svg>
