<svg width="67" height="19" viewBox="0 0 67 19" fill="none" xmlns="http://www.w3.org/2000/svg">
<path d="M2.1698 4.496C2.1698 4.916 2.2898 5.264 2.5298 5.54C2.7698 5.804 3.0878 6.026 3.4838 6.206C3.8798 6.386 4.3118 6.548 4.7798 6.692C5.2598 6.836 5.7338 6.998 6.2018 7.178C6.6818 7.358 7.1198 7.58 7.5158 7.844C7.9118 8.108 8.2298 8.45 8.4698 8.87C8.7098 9.29 8.8298 9.818 8.8298 10.454C8.8298 11.306 8.6078 12.008 8.1638 12.56C7.7318 13.112 7.1498 13.52 6.4178 13.784C5.6978 14.048 4.8998 14.18 4.0238 14.18C3.4118 14.18 2.7878 14.12 2.1518 14C1.5158 13.868 0.885797 13.676 0.261797 13.424L0.369797 10.328H1.4498L1.7918 12.578L1.5938 12.236C1.9898 12.416 2.4038 12.554 2.8358 12.65C3.2798 12.746 3.7118 12.794 4.1318 12.794C4.6478 12.794 5.1218 12.716 5.5538 12.56C5.9978 12.404 6.3518 12.17 6.6158 11.858C6.8798 11.546 7.0118 11.156 7.0118 10.688C7.0118 10.244 6.8918 9.884 6.6518 9.608C6.4118 9.332 6.0938 9.104 5.6978 8.924C5.3018 8.744 4.8698 8.582 4.4018 8.438C3.9338 8.294 3.4598 8.138 2.9798 7.97C2.5118 7.802 2.0798 7.592 1.6838 7.34C1.2878 7.076 0.969797 6.74 0.729797 6.332C0.489797 5.912 0.369797 5.39 0.369797 4.766C0.369797 3.962 0.561797 3.302 0.945797 2.786C1.3418 2.258 1.8698 1.868 2.5298 1.616C3.2018 1.352 3.9518 1.22 4.7798 1.22C5.3678 1.22 5.9738 1.286 6.5978 1.418C7.2338 1.538 7.8578 1.724 8.4698 1.976L8.3078 4.91H7.2098L6.9038 2.822L7.1378 3.056C6.8018 2.912 6.4358 2.804 6.0398 2.732C5.6438 2.648 5.2478 2.606 4.8518 2.606C4.3838 2.606 3.9458 2.672 3.5378 2.804C3.1298 2.924 2.7998 3.122 2.5478 3.398C2.2958 3.674 2.1698 4.04 2.1698 4.496ZM10.2628 14V13.046L11.8648 12.668L11.6128 12.974V1.202L11.8648 1.526L10.2628 1.148V0.194L13.4128 0.0679991V6.134L13.0168 6.044C13.5928 5.444 14.2048 5 14.8528 4.712C15.5128 4.424 16.1368 4.28 16.7248 4.28C17.2528 4.28 17.7268 4.394 18.1468 4.622C18.5788 4.838 18.9148 5.168 19.1548 5.612C19.3948 6.044 19.5088 6.602 19.4968 7.286V12.974L19.2988 12.686L20.8468 13.046V14H16.4368V13.046L17.9308 12.686L17.6968 12.992V7.682C17.7088 6.986 17.5528 6.476 17.2288 6.152C16.9168 5.828 16.5028 5.666 15.9868 5.666C15.5908 5.666 15.1528 5.78 14.6728 6.008C14.1928 6.224 13.7248 6.566 13.2688 7.034L13.4128 6.692V12.992L13.2148 12.704L14.6728 13.046V14H10.2628ZM26.4096 4.28C27.7536 4.28 28.8096 4.7 29.5776 5.54C30.3456 6.368 30.7296 7.544 30.7296 9.068C30.7296 10.1 30.5436 11 30.1716 11.768C29.7996 12.536 29.2656 13.13 28.5696 13.55C27.8856 13.97 27.0576 14.18 26.0856 14.18C24.7536 14.18 23.7156 13.772 22.9716 12.956C22.2276 12.128 21.8556 10.952 21.8556 9.428C21.8556 8.36 22.0356 7.442 22.3956 6.674C22.7556 5.906 23.2716 5.318 23.9436 4.91C24.6276 4.49 25.4496 4.28 26.4096 4.28ZM26.3196 5.594C25.4676 5.594 24.8196 5.918 24.3756 6.566C23.9436 7.202 23.7276 8.126 23.7276 9.338C23.7276 10.526 23.9376 11.414 24.3576 12.002C24.7776 12.578 25.3896 12.866 26.1936 12.866C26.7816 12.866 27.2676 12.722 27.6516 12.434C28.0476 12.146 28.3416 11.726 28.5336 11.174C28.7376 10.61 28.8396 9.938 28.8396 9.158C28.8396 7.97 28.6236 7.082 28.1916 6.494C27.7596 5.894 27.1356 5.594 26.3196 5.594ZM36.7807 4.28C38.1247 4.28 39.1807 4.7 39.9487 5.54C40.7167 6.368 41.1007 7.544 41.1007 9.068C41.1007 10.1 40.9147 11 40.5427 11.768C40.1707 12.536 39.6367 13.13 38.9407 13.55C38.2567 13.97 37.4287 14.18 36.4567 14.18C35.1247 14.18 34.0867 13.772 33.3427 12.956C32.5987 12.128 32.2267 10.952 32.2267 9.428C32.2267 8.36 32.4067 7.442 32.7667 6.674C33.1267 5.906 33.6427 5.318 34.3147 4.91C34.9987 4.49 35.8207 4.28 36.7807 4.28ZM36.6907 5.594C35.8387 5.594 35.1907 5.918 34.7467 6.566C34.3147 7.202 34.0987 8.126 34.0987 9.338C34.0987 10.526 34.3087 11.414 34.7287 12.002C35.1487 12.578 35.7607 12.866 36.5647 12.866C37.1527 12.866 37.6387 12.722 38.0227 12.434C38.4187 12.146 38.7127 11.726 38.9047 11.174C39.1087 10.61 39.2107 9.938 39.2107 9.158C39.2107 7.97 38.9947 7.082 38.5627 6.494C38.1307 5.894 37.5067 5.594 36.6907 5.594ZM46.5578 18.32C45.1298 18.32 44.0618 18.116 43.3538 17.708C42.6458 17.312 42.2918 16.73 42.2918 15.962C42.2918 15.398 42.4778 14.906 42.8498 14.486C43.2338 14.078 43.7918 13.724 44.5238 13.424V13.784C44.1158 13.76 43.7918 13.67 43.5518 13.514C43.3238 13.346 43.2098 13.118 43.2098 12.83C43.2098 12.734 43.2218 12.638 43.2458 12.542C43.2818 12.434 43.3358 12.29 43.4078 12.11C43.4918 11.93 43.6058 11.696 43.7498 11.408C43.8938 11.12 44.0798 10.748 44.3078 10.292L44.3438 10.598C43.8038 10.322 43.3898 9.944 43.1018 9.464C42.8138 8.972 42.6698 8.396 42.6698 7.736C42.6698 6.668 43.0238 5.828 43.7318 5.216C44.4518 4.592 45.4418 4.28 46.7018 4.28C47.5658 4.28 48.3098 4.43 48.9338 4.73L48.4838 4.64L51.3638 4.514L51.3818 5.576L49.7978 5.882L49.9238 5.63C50.1518 5.858 50.3258 6.14 50.4458 6.476C50.5658 6.8 50.6258 7.172 50.6258 7.592C50.6258 8.672 50.2598 9.524 49.5278 10.148C48.7958 10.76 47.8238 11.066 46.6118 11.066C45.9518 11.066 45.3338 10.964 44.7578 10.76L45.1718 10.562L44.7578 12.776L44.3798 12.596H47.9258C49.1018 12.596 49.9898 12.824 50.5898 13.28C51.2018 13.736 51.5078 14.39 51.5078 15.242C51.5078 16.238 51.0938 17 50.2658 17.528C49.4378 18.056 48.2018 18.32 46.5578 18.32ZM46.7198 16.97C47.7758 16.97 48.5498 16.838 49.0418 16.574C49.5338 16.31 49.7798 15.914 49.7798 15.386C49.7798 14.918 49.5998 14.564 49.2398 14.324C48.8798 14.084 48.3458 13.964 47.6378 13.964H44.6858L45.1538 13.856C44.3018 14.396 43.8758 14.978 43.8758 15.602C43.8758 16.058 44.1038 16.4 44.5598 16.628C45.0278 16.856 45.7478 16.97 46.7198 16.97ZM46.5938 9.824C47.3018 9.824 47.8478 9.638 48.2318 9.266C48.6278 8.882 48.8258 8.336 48.8258 7.628C48.8258 6.92 48.6398 6.392 48.2678 6.044C47.9078 5.696 47.3798 5.522 46.6838 5.522C45.9758 5.522 45.4298 5.708 45.0458 6.08C44.6738 6.44 44.4878 6.974 44.4878 7.682C44.4878 8.378 44.6678 8.912 45.0278 9.284C45.3878 9.644 45.9098 9.824 46.5938 9.824ZM55.3366 12.902L55.1746 12.686L56.6686 13.046V14H52.1866V13.046L53.6986 12.686L53.5366 12.902V1.328L53.6806 1.49L52.1866 1.148V0.194L55.3366 0.0679991V12.902ZM62.0325 14.18C61.2045 14.18 60.4725 14 59.8365 13.64C59.2125 13.268 58.7205 12.728 58.3605 12.02C58.0125 11.3 57.8385 10.424 57.8385 9.392C57.8385 8.336 58.0185 7.43 58.3785 6.674C58.7505 5.906 59.2725 5.318 59.9445 4.91C60.6285 4.49 61.4265 4.28 62.3385 4.28C63.2145 4.28 63.9285 4.46 64.4805 4.82C65.0445 5.18 65.4585 5.678 65.7225 6.314C65.9985 6.938 66.1365 7.652 66.1365 8.456C66.1365 8.612 66.1305 8.768 66.1185 8.924C66.1065 9.08 66.0885 9.26 66.0645 9.464H59.2425V8.222H64.4445L64.2825 8.33C64.2945 7.838 64.2345 7.388 64.1025 6.98C63.9705 6.572 63.7485 6.248 63.4365 6.008C63.1245 5.756 62.7105 5.63 62.1945 5.63C61.6305 5.63 61.1625 5.786 60.7905 6.098C60.4185 6.398 60.1425 6.812 59.9625 7.34C59.7825 7.868 59.6925 8.474 59.6925 9.158C59.6925 9.89 59.7945 10.532 59.9985 11.084C60.2025 11.624 60.5085 12.05 60.9165 12.362C61.3365 12.662 61.8525 12.812 62.4645 12.812C62.8965 12.812 63.3645 12.728 63.8685 12.56C64.3845 12.392 64.9125 12.14 65.4525 11.804L66.0825 12.794C65.4105 13.262 64.7265 13.61 64.0305 13.838C63.3465 14.066 62.6805 14.18 62.0325 14.18Z" fill="#333333"/>
</svg>
