<svg width="71" height="15" viewBox="0 0 71 15" fill="none" xmlns="http://www.w3.org/2000/svg">
<path d="M5.24714 14.198C5.00714 14.198 4.80914 14.126 4.65314 13.982C4.49714 13.838 4.41914 13.646 4.41914 13.406L4.40114 1.832L5.84114 1.922L5.85914 11.948C5.85914 12.296 5.87114 12.638 5.89514 12.974C5.93114 13.31 5.99714 13.61 6.09314 13.874C6.02114 13.934 5.91314 14 5.76914 14.072C5.62514 14.156 5.45114 14.198 5.24714 14.198ZM1.08914 2.804C0.981141 2.756 0.891141 2.666 0.819141 2.534C0.747141 2.402 0.699141 2.258 0.675141 2.102C0.651141 1.946 0.657141 1.814 0.693141 1.706C0.741141 1.586 0.819141 1.526 0.927141 1.526H9.33314C9.44114 1.526 9.51314 1.586 9.54914 1.706C9.59714 1.814 9.60314 1.946 9.56714 2.102C9.54314 2.258 9.49514 2.402 9.42314 2.534C9.35114 2.666 9.26714 2.756 9.17114 2.804C8.76314 2.708 8.33114 2.612 7.87514 2.516C7.41914 2.42 6.95114 2.342 6.47114 2.282C6.00314 2.21 5.54114 2.174 5.08514 2.174C4.64114 2.174 4.18514 2.21 3.71714 2.282C3.26114 2.342 2.81114 2.42 2.36714 2.516C1.92314 2.612 1.49714 2.708 1.08914 2.804ZM12.2009 14.198C11.9609 14.198 11.7629 14.12 11.6069 13.964C11.4509 13.808 11.3729 13.598 11.3729 13.334L11.3549 1.652C11.3549 1.4 11.4209 1.208 11.5529 1.076C11.6849 0.943999 11.8589 0.872 12.0749 0.86C12.3029 0.848 12.5009 0.884 12.6689 0.967999C12.8369 1.052 12.9569 1.124 13.0289 1.184C12.9329 1.508 12.8669 1.892 12.8309 2.336C12.8069 2.768 12.7889 3.32 12.7769 3.992L12.7589 7.754L12.4529 8.078C12.5129 7.358 12.6869 6.74 12.9749 6.224C13.2749 5.708 13.6589 5.312 14.1269 5.036C14.5949 4.76 15.1289 4.622 15.7289 4.622C16.7249 4.622 17.4509 4.94 17.9069 5.576C18.3749 6.212 18.6089 7.142 18.6089 8.366L18.6269 11.948C18.6269 12.26 18.6389 12.596 18.6629 12.956C18.6989 13.304 18.7589 13.61 18.8429 13.874C18.7589 13.958 18.6449 14.03 18.5009 14.09C18.3689 14.162 18.2069 14.198 18.0149 14.198C17.7749 14.198 17.5769 14.126 17.4209 13.982C17.2769 13.838 17.2049 13.646 17.2049 13.406L17.1869 8.546C17.1869 7.526 17.0489 6.752 16.7729 6.224C16.4969 5.684 16.0109 5.414 15.3149 5.414C15.0269 5.414 14.7329 5.492 14.4329 5.648C14.1329 5.804 13.8569 6.05 13.6049 6.386C13.3529 6.71 13.1489 7.142 12.9929 7.682C12.8489 8.222 12.7769 8.882 12.7769 9.662C12.7769 10.382 12.7769 10.976 12.7769 11.444C12.7769 11.912 12.7829 12.296 12.7949 12.596C12.8189 12.896 12.8429 13.142 12.8669 13.334C12.9029 13.526 12.9569 13.706 13.0289 13.874C12.9569 13.934 12.8489 14 12.7049 14.072C12.5729 14.156 12.4049 14.198 12.2009 14.198ZM22.2723 3.146C22.0083 3.146 21.7803 3.05 21.5883 2.858C21.3963 2.666 21.3003 2.438 21.3003 2.174C21.3003 1.898 21.3963 1.67 21.5883 1.49C21.7803 1.298 22.0083 1.202 22.2723 1.202C22.5483 1.202 22.7763 1.298 22.9563 1.49C23.1483 1.67 23.2443 1.898 23.2443 2.174C23.2443 2.438 23.1483 2.666 22.9563 2.858C22.7763 3.05 22.5483 3.146 22.2723 3.146ZM23.0643 11.948C23.0643 12.296 23.0763 12.638 23.1003 12.974C23.1363 13.31 23.2023 13.61 23.2983 13.874C23.2263 13.934 23.1183 14 22.9743 14.072C22.8423 14.156 22.6743 14.198 22.4703 14.198C22.2423 14.198 22.0503 14.126 21.8943 13.982C21.7383 13.838 21.6603 13.646 21.6603 13.406L21.6423 6.872C21.6423 6.524 21.6243 6.182 21.5883 5.846C21.5643 5.51 21.5043 5.21 21.4083 4.946C21.4803 4.886 21.5823 4.82 21.7143 4.748C21.8583 4.664 22.0323 4.622 22.2363 4.622C22.4763 4.622 22.6683 4.694 22.8123 4.838C22.9683 4.97 23.0463 5.162 23.0463 5.414L23.0643 11.948ZM28.6941 14.234C27.9141 14.234 27.2721 14.138 26.7681 13.946C26.2761 13.742 25.9161 13.478 25.6881 13.154C25.4601 12.818 25.3461 12.452 25.3461 12.056C25.3461 11.852 25.3821 11.666 25.4541 11.498C25.5261 11.33 25.6461 11.204 25.8141 11.12C25.9941 11.024 26.2341 11.006 26.5341 11.066C26.4981 11.186 26.4741 11.306 26.4621 11.426C26.4621 11.534 26.4741 11.666 26.4981 11.822C26.5221 12.35 26.7381 12.77 27.1461 13.082C27.5541 13.394 28.1121 13.55 28.8201 13.55C29.4801 13.55 30.0201 13.43 30.4401 13.19C30.8601 12.95 31.0701 12.596 31.0701 12.128C31.0701 11.744 30.9441 11.438 30.6921 11.21C30.4521 10.97 30.1401 10.76 29.7561 10.58C29.3721 10.4 28.9701 10.208 28.5501 10.004C28.0821 9.788 27.6321 9.56 27.2001 9.32C26.7681 9.068 26.4081 8.756 26.1201 8.384C25.8441 8.012 25.7061 7.526 25.7061 6.926C25.7061 6.374 25.8561 5.93 26.1561 5.594C26.4561 5.246 26.8521 4.994 27.3441 4.838C27.8361 4.682 28.3701 4.604 28.9461 4.604C29.9301 4.604 30.6981 4.766 31.2501 5.09C31.8021 5.402 32.0781 5.84 32.0781 6.404C32.0781 6.608 32.0301 6.788 31.9341 6.944C31.8381 7.1 31.6641 7.196 31.4121 7.232C31.3281 7.256 31.2441 7.268 31.1601 7.268C31.0761 7.256 30.9861 7.244 30.8901 7.232C30.9141 7.112 30.9261 6.986 30.9261 6.854C30.9261 6.71 30.9081 6.584 30.8721 6.476C30.8241 6.08 30.6261 5.78 30.2781 5.576C29.9301 5.372 29.4681 5.27 28.8921 5.27C28.5681 5.27 28.2621 5.312 27.9741 5.396C27.6981 5.468 27.4701 5.6 27.2901 5.792C27.1221 5.972 27.0381 6.212 27.0381 6.512C27.0381 6.908 27.1461 7.238 27.3621 7.502C27.5781 7.754 27.8661 7.976 28.2261 8.168C28.5861 8.348 28.9641 8.534 29.3601 8.726C29.7201 8.894 30.0801 9.068 30.4401 9.248C30.8001 9.416 31.1301 9.614 31.4301 9.842C31.7421 10.058 31.9881 10.31 32.1681 10.598C32.3481 10.886 32.4381 11.24 32.4381 11.66C32.4381 12.056 32.3241 12.452 32.0961 12.848C31.8801 13.244 31.4961 13.574 30.9441 13.838C30.4041 14.102 29.6541 14.234 28.6941 14.234ZM35.368 14.198C35.056 14.198 34.846 14.12 34.738 13.964C34.63 13.796 34.576 13.586 34.576 13.334L34.558 1.652C34.558 1.4 34.636 1.208 34.792 1.076C34.948 0.931999 35.146 0.86 35.386 0.86C35.602 0.86 35.776 0.901999 35.908 0.985999C36.052 1.058 36.154 1.124 36.214 1.184C36.154 1.448 36.112 1.7 36.088 1.94C36.064 2.168 36.046 2.39 36.034 2.606C36.022 2.822 36.01 3.044 35.998 3.272C35.998 3.5 35.992 3.746 35.98 4.01L35.962 7.826L35.854 7.682C36.022 7.07 36.274 6.536 36.61 6.08C36.946 5.624 37.36 5.27 37.852 5.018C38.344 4.754 38.902 4.622 39.526 4.622C40.258 4.622 40.81 4.814 41.182 5.198C41.566 5.57 41.758 6.062 41.758 6.674C41.758 7.166 41.638 7.61 41.398 8.006C41.158 8.39 40.846 8.726 40.462 9.014C40.09 9.302 39.688 9.548 39.256 9.752C39.388 9.812 39.502 9.902 39.598 10.022C39.706 10.142 39.814 10.286 39.922 10.454L40.984 12.362C41.116 12.566 41.224 12.722 41.308 12.83C41.404 12.926 41.536 12.974 41.704 12.974C41.764 12.974 41.842 12.962 41.938 12.938C42.034 12.902 42.124 12.836 42.208 12.74C42.28 12.824 42.328 12.908 42.352 12.992C42.388 13.076 42.406 13.166 42.406 13.262C42.406 13.538 42.28 13.766 42.028 13.946C41.788 14.114 41.512 14.198 41.2 14.198C40.9 14.198 40.624 14.108 40.372 13.928C40.132 13.748 39.94 13.49 39.796 13.154L38.248 10.094C37.852 10.238 37.456 10.37 37.06 10.49C36.664 10.598 36.304 10.694 35.98 10.778C35.98 11.306 35.98 11.744 35.98 12.092C35.992 12.428 36.004 12.698 36.016 12.902C36.04 13.106 36.064 13.28 36.088 13.424C36.124 13.568 36.172 13.718 36.232 13.874C36.148 13.946 36.04 14.018 35.908 14.09C35.776 14.162 35.596 14.198 35.368 14.198ZM35.98 10.13C36.508 9.974 37.024 9.8 37.528 9.608C38.044 9.404 38.512 9.17 38.932 8.906C39.352 8.63 39.682 8.318 39.922 7.97C40.174 7.622 40.3 7.22 40.3 6.764C40.3 6.296 40.18 5.966 39.94 5.774C39.712 5.57 39.412 5.468 39.04 5.468C38.428 5.468 37.894 5.672 37.438 6.08C36.982 6.476 36.622 7.028 36.358 7.736C36.106 8.432 35.98 9.23 35.98 10.13ZM45.4102 14.198C45.1582 14.198 44.9542 14.12 44.7982 13.964C44.6422 13.808 44.5642 13.598 44.5642 13.334V6.692C44.5522 6.344 44.5102 6.104 44.4382 5.972C44.3662 5.828 44.2402 5.756 44.0602 5.756C44.0002 5.756 43.9222 5.774 43.8262 5.81C43.7302 5.846 43.6522 5.924 43.5922 6.044C43.4482 5.864 43.3762 5.672 43.3762 5.468C43.3762 5.228 43.4722 5.03 43.6642 4.874C43.8562 4.718 44.1202 4.64 44.4562 4.64C44.9122 4.64 45.2602 4.796 45.5002 5.108C45.7402 5.408 45.8602 5.87 45.8602 6.494V7.754L45.5902 8.078C45.6622 7.358 45.8422 6.74 46.1302 6.224C46.4302 5.708 46.8202 5.312 47.3002 5.036C47.7922 4.76 48.3442 4.622 48.9562 4.622C49.9522 4.622 50.6842 4.94 51.1522 5.576C51.6202 6.212 51.8542 7.142 51.8542 8.366V11.948C51.8662 12.26 51.8842 12.596 51.9082 12.956C51.9442 13.304 52.0042 13.61 52.0882 13.874C51.9922 13.958 51.8782 14.03 51.7462 14.09C51.6142 14.162 51.4522 14.198 51.2602 14.198C51.0202 14.198 50.8162 14.126 50.6482 13.982C50.4922 13.838 50.4142 13.646 50.4142 13.406V8.546C50.4022 7.538 50.2582 6.776 49.9822 6.26C49.7182 5.732 49.2382 5.468 48.5422 5.468C48.2422 5.468 47.9422 5.54 47.6422 5.684C47.3542 5.828 47.0842 6.068 46.8322 6.404C46.5802 6.728 46.3762 7.16 46.2202 7.7C46.0642 8.24 45.9862 8.894 45.9862 9.662C45.9862 10.382 45.9862 10.976 45.9862 11.444C45.9982 11.912 46.0102 12.296 46.0222 12.596C46.0342 12.896 46.0582 13.142 46.0942 13.334C46.1302 13.526 46.1782 13.706 46.2382 13.874C46.1662 13.934 46.0582 14 45.9142 14.072C45.7822 14.156 45.6142 14.198 45.4102 14.198ZM58.2481 14.234C56.9521 14.234 55.9261 13.832 55.1701 13.028C54.4141 12.212 54.0361 11.03 54.0361 9.482C54.0361 7.982 54.4021 6.8 55.1341 5.936C55.8781 5.06 56.9401 4.622 58.3201 4.622C58.9681 4.622 59.5381 4.724 60.0301 4.928C60.5221 5.12 60.9061 5.408 61.1821 5.792C61.4701 6.176 61.6141 6.65 61.6141 7.214C61.6141 8.114 61.2481 8.798 60.5161 9.266C59.7961 9.722 58.8001 9.95 57.5281 9.95C57.0241 9.95 56.5441 9.932 56.0881 9.896C55.6321 9.848 55.1701 9.776 54.7021 9.68L54.7381 9.086C55.0381 9.146 55.3861 9.194 55.7821 9.23C56.1901 9.266 56.5861 9.29 56.9701 9.302C57.3901 9.302 57.7861 9.266 58.1581 9.194C58.5421 9.122 58.8781 9.002 59.1661 8.834C59.4541 8.666 59.6761 8.438 59.8321 8.15C60.0001 7.85 60.0841 7.478 60.0841 7.034C60.0841 6.566 59.9941 6.206 59.8141 5.954C59.6341 5.702 59.4061 5.528 59.1301 5.432C58.8541 5.324 58.5661 5.27 58.2661 5.27C57.4621 5.27 56.8081 5.612 56.3041 6.296C55.8121 6.968 55.5661 7.97 55.5661 9.302C55.5661 10.298 55.6981 11.084 55.9621 11.66C56.2381 12.224 56.6041 12.632 57.0601 12.884C57.5161 13.124 58.0261 13.244 58.5901 13.244C59.2381 13.244 59.8081 13.112 60.3001 12.848C60.7921 12.572 61.1221 12.182 61.2901 11.678C61.4101 11.726 61.4941 11.816 61.5421 11.948C61.6021 12.068 61.5721 12.278 61.4521 12.578C61.2241 13.118 60.8221 13.532 60.2461 13.82C59.6701 14.096 59.0041 14.234 58.2481 14.234ZM67.4415 14.234C66.1455 14.234 65.1195 13.832 64.3635 13.028C63.6075 12.212 63.2295 11.03 63.2295 9.482C63.2295 7.982 63.5955 6.8 64.3275 5.936C65.0715 5.06 66.1335 4.622 67.5135 4.622C68.1615 4.622 68.7315 4.724 69.2235 4.928C69.7155 5.12 70.0995 5.408 70.3755 5.792C70.6635 6.176 70.8075 6.65 70.8075 7.214C70.8075 8.114 70.4415 8.798 69.7095 9.266C68.9895 9.722 67.9935 9.95 66.7215 9.95C66.2175 9.95 65.7375 9.932 65.2815 9.896C64.8255 9.848 64.3635 9.776 63.8955 9.68L63.9315 9.086C64.2315 9.146 64.5795 9.194 64.9755 9.23C65.3835 9.266 65.7795 9.29 66.1635 9.302C66.5835 9.302 66.9795 9.266 67.3515 9.194C67.7355 9.122 68.0715 9.002 68.3595 8.834C68.6475 8.666 68.8695 8.438 69.0255 8.15C69.1935 7.85 69.2775 7.478 69.2775 7.034C69.2775 6.566 69.1875 6.206 69.0075 5.954C68.8275 5.702 68.5995 5.528 68.3235 5.432C68.0475 5.324 67.7595 5.27 67.4595 5.27C66.6555 5.27 66.0015 5.612 65.4975 6.296C65.0055 6.968 64.7595 7.97 64.7595 9.302C64.7595 10.298 64.8915 11.084 65.1555 11.66C65.4315 12.224 65.7975 12.632 66.2535 12.884C66.7095 13.124 67.2195 13.244 67.7835 13.244C68.4315 13.244 69.0015 13.112 69.4935 12.848C69.9855 12.572 70.3155 12.182 70.4835 11.678C70.6035 11.726 70.6875 11.816 70.7355 11.948C70.7955 12.068 70.7655 12.278 70.6455 12.578C70.4175 13.118 70.0155 13.532 69.4395 13.82C68.8635 14.096 68.1975 14.234 67.4415 14.234Z" fill="#333333"/>
</svg>
