<svg width="54" height="14" viewBox="0 0 54 14" fill="none" xmlns="http://www.w3.org/2000/svg">
<path d="M0.334961 2.69922C0.334961 2.44727 0.34668 2.20117 0.370117 1.96094C0.399414 1.7207 0.460938 1.50684 0.554688 1.31934C0.654297 1.13184 0.800781 0.982422 0.994141 0.871094C1.1875 0.753906 1.4541 0.695312 1.79395 0.695312C2.13379 0.695312 2.40039 0.753906 2.59375 0.871094C2.79297 0.982422 2.93945 1.13184 3.0332 1.31934C3.13281 1.50684 3.19434 1.7207 3.21777 1.96094C3.24121 2.20117 3.25293 2.44727 3.25293 2.69922V9.625C3.27051 9.88281 3.32324 10.1113 3.41113 10.3105C3.44629 10.3984 3.49316 10.4834 3.55176 10.5654C3.61035 10.6475 3.67773 10.7207 3.75391 10.7852C3.83594 10.8496 3.92969 10.9023 4.03516 10.9434C4.14648 10.9785 4.27246 10.9961 4.41309 10.9961C4.55371 10.9961 4.67969 10.9785 4.79102 10.9434C4.90234 10.9023 4.99609 10.8496 5.07227 10.7852C5.1543 10.7207 5.22461 10.6475 5.2832 10.5654C5.3418 10.4834 5.38867 10.3984 5.42383 10.3105C5.51172 10.1113 5.56152 9.88281 5.57324 9.625V2.69922C5.57324 2.44727 5.58496 2.20117 5.6084 1.96094C5.63184 1.7207 5.69043 1.50684 5.78418 1.31934C5.88379 1.13184 6.03027 0.982422 6.22363 0.871094C6.41699 0.753906 6.68652 0.695312 7.03223 0.695312C7.37207 0.695312 7.63867 0.753906 7.83203 0.871094C8.02539 0.982422 8.16895 1.13184 8.2627 1.31934C8.3623 1.50684 8.42383 1.7207 8.44727 1.96094C8.47656 2.20117 8.49121 2.44727 8.49121 2.69922V9.39648C8.49121 10.0059 8.3916 10.5391 8.19238 10.9961C7.99902 11.4531 7.7207 11.8369 7.35742 12.1475C7 12.4521 6.56934 12.6836 6.06543 12.8418C5.56738 12.9941 5.0166 13.0703 4.41309 13.0703C3.80371 13.0703 3.25 12.9912 2.75195 12.833C2.25391 12.6689 1.82324 12.4316 1.45996 12.1211C1.10254 11.8105 0.824219 11.4268 0.625 10.9697C0.431641 10.5127 0.334961 9.98828 0.334961 9.39648V2.69922ZM13.0967 6.51367C13.0967 6.63086 13.1348 6.73926 13.2109 6.83887C13.2871 6.93848 13.3896 7.03516 13.5186 7.12891C13.6533 7.2168 13.8057 7.30469 13.9756 7.39258C14.1514 7.48047 14.333 7.56836 14.5205 7.65625C14.8076 7.79688 15.1006 7.94922 15.3994 8.11328C15.6982 8.27148 15.9707 8.45898 16.2168 8.67578C16.4629 8.89258 16.6621 9.14453 16.8145 9.43164C16.9727 9.71289 17.0518 10.0469 17.0518 10.4336C17.0518 10.7852 16.999 11.0957 16.8936 11.3652C16.7939 11.6348 16.6592 11.8691 16.4893 12.0684C16.3193 12.2617 16.1201 12.4229 15.8916 12.5518C15.6689 12.6807 15.4316 12.7832 15.1797 12.8594C14.9336 12.9355 14.6816 12.9883 14.4238 13.0176C14.166 13.0527 13.9229 13.0703 13.6943 13.0703C13.2432 13.0703 12.8506 13.0322 12.5166 12.9561C12.1826 12.8799 11.8955 12.7803 11.6553 12.6572C11.415 12.5283 11.2158 12.3848 11.0576 12.2266C10.9053 12.0625 10.7852 11.8926 10.6973 11.7168C10.6094 11.541 10.5479 11.3682 10.5127 11.1982C10.4775 11.0225 10.46 10.8613 10.46 10.7148C10.46 10.3633 10.5566 10.1055 10.75 9.94141C10.9492 9.77734 11.251 9.69531 11.6553 9.69531C11.9482 9.69531 12.1885 9.77441 12.376 9.93262C12.5635 10.0908 12.6631 10.3457 12.6748 10.6973C12.6807 10.8145 12.7129 10.9082 12.7715 10.9785C12.8359 11.0488 12.915 11.1074 13.0088 11.1543C13.1084 11.1953 13.2168 11.2246 13.334 11.2422C13.4512 11.2539 13.5654 11.2598 13.6768 11.2598C13.9053 11.2598 14.0898 11.2012 14.2305 11.084C14.377 10.9609 14.4502 10.8027 14.4502 10.6094C14.4502 10.4453 14.4004 10.293 14.3008 10.1523C14.207 10.0059 14.0811 9.87109 13.9229 9.74805C13.7646 9.625 13.583 9.50781 13.3779 9.39648C13.1787 9.2793 12.9736 9.16211 12.7627 9.04492C12.499 8.9043 12.2324 8.75488 11.9629 8.59668C11.6992 8.43848 11.459 8.2627 11.2422 8.06934C11.0254 7.87598 10.8496 7.65918 10.7148 7.41895C10.5801 7.17285 10.5127 6.89453 10.5127 6.58398C10.5127 6.12695 10.5859 5.74609 10.7324 5.44141C10.8848 5.13086 11.1045 4.88184 11.3916 4.69434C11.6787 4.50098 12.0273 4.36328 12.4375 4.28125C12.8535 4.19922 13.3252 4.15234 13.8525 4.14062H13.9932C14.4678 4.14062 14.8691 4.18164 15.1973 4.26367C15.5312 4.3457 15.8066 4.4541 16.0234 4.58887C16.2461 4.71777 16.4189 4.86426 16.542 5.02832C16.6709 5.19238 16.7646 5.35938 16.8232 5.5293C16.8877 5.69336 16.9258 5.85156 16.9375 6.00391C16.9551 6.15625 16.9639 6.28516 16.9639 6.39062C16.9639 6.56641 16.9258 6.71289 16.8496 6.83008C16.7793 6.94141 16.6826 7.03223 16.5596 7.10254C16.4424 7.16699 16.3076 7.21387 16.1553 7.24316C16.0029 7.2666 15.8447 7.28125 15.6807 7.28711C15.54 7.28711 15.4111 7.26367 15.2939 7.2168C15.1826 7.16992 15.0859 7.11133 15.0039 7.04102C14.9219 6.9707 14.8574 6.8916 14.8105 6.80371C14.7695 6.71582 14.749 6.63086 14.749 6.54883C14.7373 6.32617 14.6465 6.15625 14.4766 6.03906C14.3125 5.92188 14.1104 5.86328 13.8701 5.86328C13.7705 5.86328 13.6738 5.875 13.5801 5.89844C13.4922 5.91602 13.4102 5.95117 13.334 6.00391C13.2637 6.05078 13.2051 6.11523 13.1582 6.19727C13.1172 6.2793 13.0967 6.38477 13.0967 6.51367ZM24.2588 0.695312C24.4932 0.695312 24.7275 0.704102 24.9619 0.72168C25.2021 0.739258 25.4189 0.789063 25.6123 0.871094C25.8057 0.953125 25.9609 1.0791 26.0781 1.24902C26.2012 1.41309 26.2627 1.64453 26.2627 1.94336C26.2627 2.23633 26.2012 2.46777 26.0781 2.6377C25.9609 2.80176 25.8057 2.9248 25.6123 3.00684C25.4189 3.08887 25.2021 3.1416 24.9619 3.16504C24.7275 3.18262 24.4932 3.19141 24.2588 3.19141H23.3623V10.9961C23.3623 11.248 23.3535 11.4941 23.3359 11.7344C23.3242 11.9746 23.2773 12.1885 23.1953 12.376C23.1133 12.5635 22.9814 12.7158 22.7998 12.833C22.6182 12.9443 22.3604 13 22.0264 13C21.6924 13 21.4346 12.9443 21.2529 12.833C21.0713 12.7158 20.9395 12.5635 20.8574 12.376C20.7754 12.1885 20.7256 11.9746 20.708 11.7344C20.6963 11.4941 20.6904 11.248 20.6904 10.9961V3.19141H19.7939C19.5596 3.19141 19.3223 3.18262 19.082 3.16504C18.8477 3.1416 18.6338 3.08887 18.4404 3.00684C18.2471 2.9248 18.0889 2.80176 17.9658 2.6377C17.8486 2.46777 17.79 2.23633 17.79 1.94336C17.79 1.64453 17.8486 1.41309 17.9658 1.24902C18.0889 1.0791 18.2471 0.953125 18.4404 0.871094C18.6338 0.789063 18.8477 0.739258 19.082 0.72168C19.3223 0.704102 19.5596 0.695312 19.7939 0.695312H24.2588ZM27.3701 6.21484C27.3701 5.96289 27.3848 5.7168 27.4141 5.47656C27.4434 5.23633 27.5049 5.02246 27.5986 4.83496C27.6982 4.64746 27.8359 4.49805 28.0117 4.38672C28.1934 4.26953 28.4365 4.21094 28.7412 4.21094C29.04 4.21094 29.2773 4.26953 29.4531 4.38672C29.6289 4.49805 29.7637 4.64746 29.8574 4.83496C29.9512 5.02246 30.0098 5.23633 30.0332 5.47656C30.0625 5.7168 30.0771 5.96289 30.0771 6.21484V9.64258C30.0771 9.8125 30.083 9.97656 30.0947 10.1348C30.1123 10.2871 30.1475 10.4248 30.2002 10.5479C30.2529 10.665 30.3291 10.7617 30.4287 10.8379C30.5342 10.9082 30.6748 10.9434 30.8506 10.9434C31.085 10.9434 31.2754 10.8643 31.4219 10.7061C31.5742 10.5479 31.6914 10.3311 31.7734 10.0557C31.8613 9.78027 31.9199 9.45801 31.9492 9.08887C31.9785 8.71387 31.9932 8.3125 31.9932 7.88477V6.21484C31.9932 5.96289 32.0078 5.7168 32.0371 5.47656C32.0664 5.23633 32.1279 5.02246 32.2217 4.83496C32.3213 4.64746 32.459 4.49805 32.6348 4.38672C32.8164 4.26953 33.0596 4.21094 33.3643 4.21094C33.6631 4.21094 33.9004 4.26953 34.0762 4.38672C34.252 4.49805 34.3867 4.64746 34.4805 4.83496C34.5742 5.02246 34.6328 5.23633 34.6562 5.47656C34.6855 5.7168 34.7002 5.96289 34.7002 6.21484V11.0137C34.7002 11.2656 34.6914 11.5117 34.6738 11.752C34.6562 11.9863 34.6035 12.1973 34.5156 12.3848C34.4277 12.5664 34.293 12.7158 34.1113 12.833C33.9355 12.9443 33.6865 13 33.3643 13C33.042 13 32.79 12.9473 32.6084 12.8418C32.4268 12.7305 32.2891 12.5986 32.1953 12.4463C32.1074 12.2939 32.0518 12.1328 32.0283 11.9629C32.0049 11.793 31.9932 11.6465 31.9932 11.5234C31.9463 11.6934 31.873 11.8662 31.7734 12.042C31.6738 12.2178 31.5449 12.376 31.3867 12.5166C31.2344 12.6572 31.0498 12.7744 30.833 12.8682C30.6162 12.9561 30.3643 13 30.0771 13C29.7549 13 29.4326 12.9473 29.1104 12.8418C28.7881 12.7363 28.498 12.5605 28.2402 12.3145C27.9824 12.0684 27.7715 11.7461 27.6074 11.3477C27.4492 10.9492 27.3701 10.457 27.3701 9.87109V6.21484ZM36.8447 2.69922C36.8447 2.44727 36.8564 2.20117 36.8799 1.96094C36.9092 1.71484 36.9678 1.50098 37.0557 1.31934C37.1494 1.13184 37.2842 0.982422 37.46 0.871094C37.6357 0.753906 37.8701 0.695312 38.1631 0.695312C38.4678 0.695312 38.7109 0.753906 38.8926 0.871094C39.0742 0.982422 39.209 1.13184 39.2969 1.31934C39.3906 1.50098 39.4492 1.71484 39.4727 1.96094C39.502 2.20117 39.5166 2.44727 39.5166 2.69922V5.70508C39.5693 5.5293 39.6426 5.35352 39.7363 5.17773C39.8359 5.00195 39.9619 4.84375 40.1143 4.70312C40.2666 4.5625 40.4482 4.44824 40.6592 4.36035C40.876 4.27246 41.1279 4.22852 41.415 4.22852C41.7373 4.22852 42.0596 4.28125 42.3818 4.38672C42.7041 4.49219 42.9941 4.66797 43.252 4.91406C43.5098 5.1543 43.7178 5.47363 43.876 5.87207C44.04 6.26465 44.1221 6.75391 44.1221 7.33984V9.88867C44.1221 10.4688 44.04 10.958 43.876 11.3564C43.7178 11.749 43.5098 12.0684 43.252 12.3145C42.9941 12.5605 42.7041 12.7363 42.3818 12.8418C42.0596 12.9473 41.7373 13 41.415 13C41.1279 13 40.876 12.9561 40.6592 12.8682C40.4482 12.7744 40.2666 12.6572 40.1143 12.5166C39.9619 12.376 39.8359 12.2178 39.7363 12.042C39.6426 11.8662 39.5693 11.6934 39.5166 11.5234C39.5166 11.6406 39.5049 11.7842 39.4814 11.9541C39.4639 12.124 39.4111 12.2881 39.3232 12.4463C39.2354 12.5986 39.1006 12.7305 38.9189 12.8418C38.7373 12.9473 38.4854 13 38.1631 13C37.8467 13 37.6006 12.9443 37.4248 12.833C37.249 12.7158 37.1172 12.5635 37.0293 12.376C36.9414 12.1885 36.8887 11.9775 36.8711 11.7432C36.8535 11.5029 36.8447 11.2598 36.8447 11.0137V2.69922ZM41.415 7.5332C41.415 7.38086 41.4092 7.23145 41.3975 7.08496C41.3857 6.93262 41.3535 6.79785 41.3008 6.68066C41.248 6.56348 41.1689 6.46973 41.0635 6.39941C40.9639 6.32324 40.8232 6.28516 40.6416 6.28516C40.4131 6.28516 40.2256 6.3584 40.0791 6.50488C39.9326 6.65137 39.8184 6.83008 39.7363 7.04102C39.6543 7.25195 39.5957 7.47754 39.5605 7.71777C39.5312 7.95215 39.5166 8.16016 39.5166 8.3418C39.5225 8.79297 39.54 9.18262 39.5693 9.51074C39.6045 9.83301 39.6631 10.1025 39.7451 10.3193C39.8271 10.5303 39.9385 10.6885 40.0791 10.7939C40.2256 10.8936 40.4131 10.9434 40.6416 10.9434C40.8232 10.9434 40.9639 10.9082 41.0635 10.8379C41.1689 10.7617 41.248 10.6621 41.3008 10.5391C41.3535 10.416 41.3857 10.2783 41.3975 10.126C41.4092 9.97363 41.415 9.81836 41.415 9.66016V7.5332ZM53.1748 7.99023C53.1748 8.08398 53.1689 8.19531 53.1572 8.32422C53.1455 8.44727 53.0986 8.56738 53.0166 8.68457C52.9404 8.7959 52.8174 8.89258 52.6475 8.97461C52.4775 9.05664 52.2373 9.09766 51.9268 9.09766H48.4287V9.94141C48.4287 10.082 48.4463 10.2285 48.4814 10.3809C48.5166 10.5332 48.5752 10.6738 48.6572 10.8027C48.7451 10.9316 48.8594 11.0371 49 11.1191C49.1406 11.2012 49.3135 11.2422 49.5186 11.2422C49.7529 11.2422 49.9316 11.2158 50.0547 11.1631C50.1836 11.1045 50.2832 11.0342 50.3535 10.9521C50.4297 10.8701 50.4971 10.7822 50.5557 10.6885C50.6143 10.5947 50.6904 10.5068 50.7842 10.4248C50.8838 10.3428 51.0186 10.2754 51.1885 10.2227C51.3643 10.1641 51.6045 10.1348 51.9092 10.1348C52.0557 10.1348 52.1963 10.1465 52.3311 10.1699C52.4717 10.1934 52.5947 10.2373 52.7002 10.3018C52.8057 10.3662 52.8906 10.457 52.9551 10.5742C53.0195 10.6855 53.0518 10.832 53.0518 11.0137C53.0518 11.3945 52.9316 11.7139 52.6914 11.9717C52.4512 12.2236 52.1494 12.4258 51.7861 12.5781C51.4229 12.7305 51.0273 12.8389 50.5996 12.9033C50.1777 12.9678 49.7822 13 49.4131 13C48.9268 12.9941 48.4639 12.9326 48.0244 12.8154C47.585 12.6982 47.1953 12.5107 46.8555 12.2529C46.5215 11.9951 46.2549 11.6582 46.0557 11.2422C45.8564 10.8262 45.7568 10.3164 45.7568 9.71289V7.65625C45.7568 7.09961 45.8213 6.62793 45.9502 6.24121C46.085 5.85449 46.2578 5.53223 46.4688 5.27441C46.6797 5.0166 46.917 4.81738 47.1807 4.67676C47.4443 4.53027 47.7109 4.42188 47.9805 4.35156C48.25 4.28125 48.5049 4.2373 48.7451 4.21973C48.9912 4.20215 49.2021 4.19336 49.3779 4.19336C49.9697 4.19336 50.4736 4.24609 50.8896 4.35156C51.3115 4.45703 51.6631 4.59473 51.9443 4.76465C52.2256 4.93457 52.4482 5.13086 52.6123 5.35352C52.7764 5.57617 52.8994 5.80762 52.9814 6.04785C53.0635 6.28223 53.1162 6.52246 53.1396 6.76855C53.1631 7.00879 53.1748 7.23438 53.1748 7.44531V7.99023ZM48.4287 7.7793H50.626C50.626 7.50391 50.6172 7.26074 50.5996 7.0498C50.5879 6.83301 50.5439 6.65137 50.4678 6.50488C50.3975 6.3584 50.2832 6.24707 50.125 6.1709C49.9727 6.09473 49.7529 6.05664 49.4658 6.05664C49.2256 6.05664 49.0352 6.09473 48.8945 6.1709C48.7598 6.24707 48.6572 6.34375 48.5869 6.46094C48.5166 6.57227 48.4727 6.69238 48.4551 6.82129C48.4375 6.9502 48.4287 7.06445 48.4287 7.16406V7.7793Z" fill="#333333"/>
</svg>
